<svg xmlns="http://www.w3.org/2000/svg" viewBox="0 0 1080 1920" width="1080" height="1920" font-family="Segoe UI, Arial, sans-serif">
  <!-- Canvas -->
  <rect x="0" y="0" width="1080" height="1920" fill="#000000"/>

  <!-- Strict (no-go) margins -->
  <g fill="#F57C5B" fill-opacity="0.22">
    <rect x="0" y="0" width="1080" height="160"/>
    <rect x="0" y="1540" width="1080" height="380"/>
    <rect x="0" y="160" width="60" height="1380"/>
    <rect x="1020" y="160" width="60" height="1380"/>
  </g>
  <g fill="#F57C5B" font-size="26" font-weight="700" text-anchor="middle">
    <text x="540" y="95">STRICT — no content · top 160px</text>
  </g>
  <!-- Reserved caption band -->
  <g fill="#F5C842" text-anchor="middle">
    <text x="540" y="1700" font-size="30" font-weight="800">RESERVED FOR CAPTIONS</text>
    <text x="540" y="1745" font-size="24" font-weight="600" fill-opacity="0.8">bottom 380px (20%) · keep empty</text>
  </g>

  <!-- Safe area outline -->
  <rect x="60" y="160" width="960" height="1380" fill="none" stroke="#5BC8F5" stroke-width="4"/>

  <!-- Column dividers -->
  <g stroke="#5BC8F5" stroke-opacity="0.4" stroke-width="2" stroke-dasharray="10 12">
    <line x1="380" y1="160" x2="380" y2="1540"/>
    <line x1="700" y1="160" x2="700" y2="1540"/>
  </g>
  <g fill="#5BC8F5" font-size="24" font-weight="700" text-anchor="middle" fill-opacity="0.85">
    <text x="220" y="200">LEFT</text>
    <text x="540" y="200">CENTER</text>
    <text x="860" y="200">RIGHT</text>
  </g>

  <!-- Band dividers -->
  <g stroke="#FFFFFF" stroke-opacity="0.25" stroke-width="2" stroke-dasharray="14 12">
    <line x1="60" y1="436" x2="1020" y2="436"/>
    <line x1="60" y1="712" x2="1020" y2="712"/>
    <line x1="60" y1="988" x2="1020" y2="988"/>
    <line x1="60" y1="1264" x2="1020" y2="1264"/>
  </g>

  <!-- Band labels -->
  <g text-anchor="middle">
    <g fill="#F5C842" font-size="56" font-weight="800">
      <text x="540" y="316">TOP</text>
      <text x="540" y="592">UPPER</text>
      <text x="540" y="868">MIDDLE</text>
      <text x="540" y="1144">LOWER</text>
      <text x="540" y="1420">BOTTOM</text>
    </g>
    <g fill="#FFFFFF" fill-opacity="0.55" font-size="24">
      <text x="540" y="358">y 160 – 436</text>
      <text x="540" y="634">y 436 – 712</text>
      <text x="540" y="910">y 712 – 988</text>
      <text x="540" y="1186">y 988 – 1264</text>
      <text x="540" y="1462">y 1264 – 1540</text>
    </g>
  </g>

  <!-- Title -->
  <text x="540" y="130" fill="#FFFFFF" font-size="30" font-weight="800" text-anchor="middle">9:16 SAFE-ZONE GRID · 1080 × 1920</text>
</svg>
